<svg width="43" height="49" viewBox="0 0 43 49" fill="none" xmlns="http://www.w3.org/2000/svg">
<path d="M4.43547 43.884L0.587463 0.707886H42.8847L39.0316 43.8772L21.7104 48.6795L4.43547 43.884Z" fill="#0093FF"/>
<path d="M21.7361 45.0096L35.7335 41.1291L39.0264 4.23889H21.7361V45.0096Z" fill="#33A9DC"/>
<path d="M21.7361 19.8811H28.7434L29.2265 14.4586H21.7361V9.16284H35.014L34.8872 10.5831L33.5868 25.1768H21.7361V19.8811Z" fill="white"/>
<path d="M21.7686 33.6336L21.7446 33.6404L15.8476 32.0471L15.4706 27.8239H10.1544L10.8962 36.1384L21.7429 39.1503L21.7686 39.1434V33.6336Z" fill="#EBEBEB"/>
<path d="M28.2928 24.9524L27.6554 32.0436L21.7498 33.637V39.1468L32.6051 36.1383L32.6856 35.244L33.6056 24.9524H28.2928Z" fill="white"/>
<path d="M21.755 9.16284V14.4586H8.96368L8.85746 13.2678L8.61589 10.5831L8.48911 9.16284H21.755ZM21.7361 19.8811V25.1768H15.9127L15.8065 23.9861L15.5666 21.3014L15.4398 19.8811H21.7361Z" fill="#EBEBEB"/>
</svg>
