<svg width="685" height="498" viewBox="0 0 685 498" fill="none" xmlns="http://www.w3.org/2000/svg">
<g clip-path="url(#clip0_171_2)">
<path d="M399.011 87.7916C411.849 87.7916 422.257 77.3885 422.257 64.5556C422.257 51.7227 411.849 41.3196 399.011 41.3196C386.173 41.3196 375.766 51.7227 375.766 64.5556C375.766 77.3885 386.173 87.7916 399.011 87.7916Z" fill="#F2F2F2"/>
<path d="M579.333 432.64C613.885 406.334 630.388 362.129 620.057 319.96C619.8 318.912 619.529 317.867 619.244 316.824C612.394 291.793 595.449 268.003 570.752 260.005C550.015 253.289 527.379 258.453 505.745 255.783C463.276 250.54 430.351 216.192 407.184 180.229C384.017 144.266 366.213 104.011 335.429 74.3005C284.686 25.3276 201.913 14.7836 139 46.6614C76.0865 78.5392 36.0115 149.263 37.7206 219.747C39.4297 290.232 81.2905 357.621 142.083 393.375C164.415 406.509 190.245 415.814 215.951 412.558C238.256 409.733 258.522 397.753 280.722 394.196C315.625 388.604 350.306 404.379 380.494 422.761C410.683 441.143 439.843 462.931 474.148 471.453C507.458 479.727 548.726 455.943 579.333 432.64Z" fill="#F2F2F2"/>
<path d="M529.691 48.1415C528.933 47.6368 528.167 47.1581 527.41 46.6708C505.515 32.6737 482.048 21.3026 457.492 12.7925L451.799 91.3053H415.704V1.33143C413.432 0.861503 411.142 0.417683 408.852 -3.05176e-05V91.3053H365.958C342.344 91.3053 319.698 81.9286 303.001 65.238C286.303 48.5475 276.923 25.9102 276.923 2.3062V2.30612C274.624 2.80215 272.343 3.333 270.062 3.89866V91.3053H235.125L229.702 16.4388C204.467 26.1126 180.511 38.8341 158.365 54.3202C157.982 54.5813 157.599 54.851 157.225 55.1121C155.301 56.461 153.403 57.836 151.514 59.2283V358.755H254.479L252.659 333.562L242.647 195.238H444.268L434.256 333.562L432.437 358.755H534.261V51.1699C532.746 50.1431 531.223 49.1336 529.691 48.1415ZM270.062 172.394H240.993L235.622 98.1627H270.062V172.394ZM408.852 172.394H360.029V170.923C360.029 170.216 359.89 169.516 359.619 168.863C359.348 168.21 358.951 167.617 358.451 167.117C357.95 166.618 357.356 166.222 356.702 165.952C356.048 165.682 355.348 165.544 354.64 165.545H333.415C332.709 165.545 332.009 165.684 331.356 165.954C330.703 166.224 330.11 166.62 329.61 167.12C329.111 167.619 328.714 168.212 328.444 168.865C328.174 169.517 328.035 170.217 328.035 170.923V172.394H276.923V98.1627H408.852V172.394ZM415.704 172.394V98.1627H451.302L445.931 172.394H415.704Z" fill="#3F3D56"/>
<path d="M0 377.936C7.56306 386.894 15.7434 395.312 24.4811 403.129L660.519 404C669.257 396.182 677.437 387.764 685 378.806L0 377.936Z" fill="#3F3D56"/>
<path d="M431.318 297.265V371.848C431.319 372.799 431.697 373.71 432.37 374.382C433.042 375.054 433.954 375.432 434.904 375.433H545.474C546.424 375.432 547.336 375.054 548.008 374.382C548.681 373.71 549.059 372.799 549.06 371.848V297.265C549.057 296.316 548.679 295.406 548.007 294.735C547.334 294.064 546.424 293.686 545.474 293.685H434.904C433.954 293.686 433.044 294.064 432.371 294.735C431.699 295.406 431.321 296.316 431.318 297.265Z" fill="#3F3D56"/>
<path d="M433.912 298.193V370.928C433.913 371.436 434.115 371.923 434.474 372.282C434.834 372.641 435.321 372.843 435.829 372.844H544.553C545.061 372.843 545.548 372.641 545.907 372.282C546.267 371.923 546.469 371.436 546.47 370.928V298.193C546.47 297.685 546.268 297.197 545.908 296.837C545.549 296.478 545.062 296.275 544.553 296.274H435.829C435.32 296.275 434.833 296.478 434.473 296.837C434.114 297.197 433.912 297.685 433.912 298.193Z" fill="#C1FAFF"/>
<path d="M429.005 386.394C429.208 386.648 429.466 386.852 429.759 386.993C430.052 387.133 430.373 387.205 430.697 387.203H549.091C549.415 387.203 549.734 387.13 550.027 386.991C550.319 386.851 550.576 386.649 550.78 386.397C550.984 386.146 551.13 385.852 551.206 385.538C551.282 385.223 551.287 384.896 551.221 384.579L549.383 375.853C549.307 375.497 549.143 375.166 548.906 374.889C548.669 374.613 548.366 374.4 548.026 374.271C547.78 374.174 547.518 374.125 547.253 374.125H432.528C432.263 374.125 432.001 374.174 431.755 374.271C431.415 374.4 431.112 374.613 430.875 374.889C430.639 375.166 430.475 375.497 430.398 375.853L428.561 384.579C428.495 384.895 428.501 385.223 428.578 385.537C428.655 385.851 428.801 386.143 429.005 386.394Z" fill="#2F2E41"/>
<path d="M543.191 377.883H545.987C546.222 377.883 546.412 377.693 546.412 377.459V376.121C546.412 375.887 546.222 375.696 545.987 375.696H543.191C542.956 375.696 542.766 375.887 542.766 376.121V377.459C542.766 377.693 542.956 377.883 543.191 377.883Z" fill="#3F3D56"/>
<path d="M535.898 377.883H538.694C538.929 377.883 539.119 377.693 539.119 377.459V376.121C539.119 375.887 538.929 375.696 538.694 375.696H535.898C535.663 375.696 535.473 375.887 535.473 376.121V377.459C535.473 377.693 535.663 377.883 535.898 377.883Z" fill="#3F3D56"/>
<path d="M528.605 377.883H531.401C531.636 377.883 531.826 377.693 531.826 377.459V376.121C531.826 375.887 531.636 375.696 531.401 375.696H528.605C528.37 375.696 528.18 375.887 528.18 376.121V377.459C528.18 377.693 528.37 377.883 528.605 377.883Z" fill="#3F3D56"/>
<path d="M521.312 377.883H524.108C524.343 377.883 524.533 377.693 524.533 377.459V376.121C524.533 375.887 524.343 375.696 524.108 375.696H521.312C521.077 375.696 520.887 375.887 520.887 376.121V377.459C520.887 377.693 521.077 377.883 521.312 377.883Z" fill="#3F3D56"/>
<path d="M514.019 377.883H516.815C517.05 377.883 517.24 377.693 517.24 377.459V376.121C517.24 375.887 517.05 375.696 516.815 375.696H514.019C513.784 375.696 513.594 375.887 513.594 376.121V377.459C513.594 377.693 513.784 377.883 514.019 377.883Z" fill="#3F3D56"/>
<path d="M506.726 377.883H509.522C509.757 377.883 509.947 377.693 509.947 377.459V376.121C509.947 375.887 509.757 375.696 509.522 375.696H506.726C506.491 375.696 506.301 375.887 506.301 376.121V377.459C506.301 377.693 506.491 377.883 506.726 377.883Z" fill="#3F3D56"/>
<path d="M499.433 377.883H502.229C502.464 377.883 502.654 377.693 502.654 377.459V376.121C502.654 375.887 502.464 375.696 502.229 375.696H499.433C499.198 375.696 499.008 375.887 499.008 376.121V377.459C499.008 377.693 499.198 377.883 499.433 377.883Z" fill="#3F3D56"/>
<path d="M492.14 377.883H494.936C495.171 377.883 495.361 377.693 495.361 377.459V376.121C495.361 375.887 495.171 375.696 494.936 375.696H492.14C491.905 375.696 491.715 375.887 491.715 376.121V377.459C491.715 377.693 491.905 377.883 492.14 377.883Z" fill="#3F3D56"/>
<path d="M484.847 377.883H487.643C487.878 377.883 488.068 377.693 488.068 377.459V376.121C488.068 375.887 487.878 375.696 487.643 375.696H484.847C484.612 375.696 484.422 375.887 484.422 376.121V377.459C484.422 377.693 484.612 377.883 484.847 377.883Z" fill="#3F3D56"/>
<path d="M477.554 377.883H480.35C480.585 377.883 480.775 377.693 480.775 377.459V376.121C480.775 375.887 480.585 375.696 480.35 375.696H477.554C477.319 375.696 477.129 375.887 477.129 376.121V377.459C477.129 377.693 477.319 377.883 477.554 377.883Z" fill="#3F3D56"/>
<path d="M470.261 377.883H473.057C473.292 377.883 473.482 377.693 473.482 377.459V376.121C473.482 375.887 473.292 375.696 473.057 375.696H470.261C470.026 375.696 469.836 375.887 469.836 376.121V377.459C469.836 377.693 470.026 377.883 470.261 377.883Z" fill="#3F3D56"/>
<path d="M462.968 377.883H465.764C465.999 377.883 466.189 377.693 466.189 377.459V376.121C466.189 375.887 465.999 375.696 465.764 375.696H462.968C462.733 375.696 462.543 375.887 462.543 376.121V377.459C462.543 377.693 462.733 377.883 462.968 377.883Z" fill="#3F3D56"/>
<path d="M455.675 377.883H458.471C458.706 377.883 458.896 377.693 458.896 377.459V376.121C458.896 375.887 458.706 375.696 458.471 375.696H455.675C455.44 375.696 455.25 375.887 455.25 376.121V377.459C455.25 377.693 455.44 377.883 455.675 377.883Z" fill="#3F3D56"/>
<path d="M448.382 377.883H451.178C451.413 377.883 451.604 377.693 451.604 377.459V376.121C451.604 375.887 451.413 375.696 451.178 375.696H448.382C448.147 375.696 447.957 375.887 447.957 376.121V377.459C447.957 377.693 448.147 377.883 448.382 377.883Z" fill="#3F3D56"/>
<path d="M441.089 377.883H443.886C444.12 377.883 444.311 377.693 444.311 377.459V376.121C444.311 375.887 444.12 375.696 443.886 375.696H441.089C440.854 375.696 440.664 375.887 440.664 376.121V377.459C440.664 377.693 440.854 377.883 441.089 377.883Z" fill="#3F3D56"/>
<path d="M433.796 377.883H436.593C436.827 377.883 437.018 377.693 437.018 377.459V376.121C437.018 375.887 436.827 375.696 436.593 375.696H433.796C433.561 375.696 433.371 375.887 433.371 376.121V377.459C433.371 377.693 433.561 377.883 433.796 377.883Z" fill="#3F3D56"/>
<path d="M543.277 381.528H546.073C546.308 381.528 546.498 381.338 546.498 381.104V379.766C546.498 379.532 546.308 379.341 546.073 379.341H543.277C543.042 379.341 542.852 379.532 542.852 379.766V381.104C542.852 381.338 543.042 381.528 543.277 381.528Z" fill="#3F3D56"/>
<path d="M535.984 381.528H538.78C539.015 381.528 539.205 381.338 539.205 381.104V379.766C539.205 379.532 539.015 379.341 538.78 379.341H535.984C535.749 379.341 535.559 379.532 535.559 379.766V381.104C535.559 381.338 535.749 381.528 535.984 381.528Z" fill="#3F3D56"/>
<path d="M528.691 381.528H531.487C531.722 381.528 531.912 381.338 531.912 381.104V379.766C531.912 379.532 531.722 379.341 531.487 379.341H528.691C528.456 379.341 528.266 379.532 528.266 379.766V381.104C528.266 381.338 528.456 381.528 528.691 381.528Z" fill="#3F3D56"/>
<path d="M521.398 381.528H524.194C524.429 381.528 524.619 381.338 524.619 381.104V379.766C524.619 379.532 524.429 379.341 524.194 379.341H521.398C521.163 379.341 520.973 379.532 520.973 379.766V381.104C520.973 381.338 521.163 381.528 521.398 381.528Z" fill="#3F3D56"/>
<path d="M514.105 381.528H516.901C517.136 381.528 517.326 381.338 517.326 381.104V379.766C517.326 379.532 517.136 379.341 516.901 379.341H514.105C513.87 379.341 513.68 379.532 513.68 379.766V381.104C513.68 381.338 513.87 381.528 514.105 381.528Z" fill="#3F3D56"/>
<path d="M506.812 381.528H509.608C509.843 381.528 510.033 381.338 510.033 381.104V379.766C510.033 379.532 509.843 379.341 509.608 379.341H506.812C506.577 379.341 506.387 379.532 506.387 379.766V381.104C506.387 381.338 506.577 381.528 506.812 381.528Z" fill="#3F3D56"/>
<path d="M499.519 381.528H502.315C502.55 381.528 502.74 381.338 502.74 381.104V379.766C502.74 379.532 502.55 379.341 502.315 379.341H499.519C499.284 379.341 499.094 379.532 499.094 379.766V381.104C499.094 381.338 499.284 381.528 499.519 381.528Z" fill="#3F3D56"/>
<path d="M492.226 381.528H495.022C495.257 381.528 495.447 381.338 495.447 381.104V379.766C495.447 379.532 495.257 379.341 495.022 379.341H492.226C491.991 379.341 491.801 379.532 491.801 379.766V381.104C491.801 381.338 491.991 381.528 492.226 381.528Z" fill="#3F3D56"/>
<path d="M484.933 381.528H487.729C487.964 381.528 488.154 381.338 488.154 381.104V379.766C488.154 379.532 487.964 379.341 487.729 379.341H484.933C484.698 379.341 484.508 379.532 484.508 379.766V381.104C484.508 381.338 484.698 381.528 484.933 381.528Z" fill="#3F3D56"/>
<path d="M477.64 381.528H480.436C480.671 381.528 480.861 381.338 480.861 381.104V379.766C480.861 379.532 480.671 379.341 480.436 379.341H477.64C477.405 379.341 477.215 379.532 477.215 379.766V381.104C477.215 381.338 477.405 381.528 477.64 381.528Z" fill="#3F3D56"/>
<path d="M470.347 381.528H473.143C473.378 381.528 473.568 381.338 473.568 381.104V379.766C473.568 379.532 473.378 379.341 473.143 379.341H470.347C470.112 379.341 469.922 379.532 469.922 379.766V381.104C469.922 381.338 470.112 381.528 470.347 381.528Z" fill="#3F3D56"/>
<path d="M463.054 381.528H465.85C466.085 381.528 466.275 381.338 466.275 381.104V379.766C466.275 379.532 466.085 379.341 465.85 379.341H463.054C462.819 379.341 462.629 379.532 462.629 379.766V381.104C462.629 381.338 462.819 381.528 463.054 381.528Z" fill="#3F3D56"/>
<path d="M455.761 381.528H458.557C458.792 381.528 458.982 381.338 458.982 381.104V379.766C458.982 379.532 458.792 379.341 458.557 379.341H455.761C455.526 379.341 455.336 379.532 455.336 379.766V381.104C455.336 381.338 455.526 381.528 455.761 381.528Z" fill="#3F3D56"/>
<path d="M448.468 381.528H451.264C451.499 381.528 451.689 381.338 451.689 381.104V379.766C451.689 379.532 451.499 379.341 451.264 379.341H448.468C448.233 379.341 448.043 379.532 448.043 379.766V381.104C448.043 381.338 448.233 381.528 448.468 381.528Z" fill="#3F3D56"/>
<path d="M441.175 381.528H443.971C444.206 381.528 444.396 381.338 444.396 381.104V379.766C444.396 379.532 444.206 379.341 443.971 379.341H441.175C440.94 379.341 440.75 379.532 440.75 379.766V381.104C440.75 381.338 440.94 381.528 441.175 381.528Z" fill="#3F3D56"/>
<path d="M433.882 381.528H436.678C436.913 381.528 437.104 381.338 437.104 381.104V379.766C437.104 379.532 436.913 379.341 436.678 379.341H433.882C433.647 379.341 433.457 379.532 433.457 379.766V381.104C433.457 381.338 433.647 381.528 433.882 381.528Z" fill="#3F3D56"/>
<path d="M482.745 385.902H511.067C511.302 385.902 511.492 385.712 511.492 385.478V384.14C511.492 383.906 511.302 383.715 511.067 383.715H482.745C482.511 383.715 482.32 383.906 482.32 384.14V385.478C482.32 385.712 482.511 385.902 482.745 385.902Z" fill="#3F3D56"/>
<path d="M452.739 312.186H450.263C449.513 312.186 448.904 312.795 448.904 313.545C448.904 314.295 449.513 314.903 450.263 314.903H452.739C453.49 314.903 454.098 314.295 454.098 313.545C454.098 312.795 453.49 312.186 452.739 312.186Z" fill="white"/>
<path d="M481.054 312.186H478.578C477.827 312.186 477.219 312.795 477.219 313.545C477.219 314.295 477.827 314.903 478.578 314.903H481.054C481.804 314.903 482.413 314.295 482.413 313.545C482.413 312.795 481.804 312.186 481.054 312.186Z" fill="white"/>
<path d="M489.077 312.186H486.601C485.851 312.186 485.242 312.795 485.242 313.545C485.242 314.295 485.851 314.903 486.601 314.903H489.077C489.828 314.903 490.436 314.295 490.436 313.545C490.436 312.795 489.828 312.186 489.077 312.186Z" fill="white"/>
<path d="M473.351 311.96H457.965C457.214 311.96 456.605 312.568 456.605 313.318C456.605 314.069 457.214 314.677 457.965 314.677H473.351C474.102 314.677 474.71 314.069 474.71 313.318C474.71 312.568 474.102 311.96 473.351 311.96Z" fill="white"/>
<path d="M511.105 311.96H495.718C494.968 311.96 494.359 312.568 494.359 313.318C494.359 314.069 494.968 314.677 495.718 314.677H511.105C511.856 314.677 512.464 314.069 512.464 313.318C512.464 312.568 511.856 311.96 511.105 311.96Z" fill="white"/>
<path d="M460.29 318.319H457.814C457.064 318.319 456.455 318.927 456.455 319.677C456.455 320.427 457.064 321.036 457.814 321.036H460.29C461.04 321.036 461.649 320.427 461.649 319.677C461.649 318.927 461.04 318.319 460.29 318.319Z" fill="white"/>
<path d="M488.604 318.319H486.129C485.378 318.319 484.77 318.927 484.77 319.677C484.77 320.427 485.378 321.036 486.129 321.036H488.604C489.355 321.036 489.963 320.427 489.963 319.677C489.963 318.927 489.355 318.319 488.604 318.319Z" fill="white"/>
<path d="M496.628 318.319H494.152C493.401 318.319 492.793 318.927 492.793 319.677C492.793 320.427 493.401 321.036 494.152 321.036H496.628C497.378 321.036 497.987 320.427 497.987 319.677C497.987 318.927 497.378 318.319 496.628 318.319Z" fill="white"/>
<path d="M480.902 318.092H465.515C464.765 318.092 464.156 318.7 464.156 319.451C464.156 320.201 464.765 320.809 465.515 320.809H480.902C481.653 320.809 482.261 320.201 482.261 319.451C482.261 318.7 481.653 318.092 480.902 318.092Z" fill="white"/>
<path d="M518.656 318.092H503.269C502.519 318.092 501.91 318.7 501.91 319.451C501.91 320.201 502.519 320.809 503.269 320.809H518.656C519.407 320.809 520.015 320.201 520.015 319.451C520.015 318.7 519.407 318.092 518.656 318.092Z" fill="white"/>
<path d="M467.841 324.451H465.365C464.614 324.451 464.006 325.059 464.006 325.809C464.006 326.56 464.614 327.168 465.365 327.168H467.841C468.591 327.168 469.2 326.56 469.2 325.809C469.2 325.059 468.591 324.451 467.841 324.451Z" fill="white"/>
<path d="M496.155 324.451H493.679C492.929 324.451 492.32 325.059 492.32 325.809C492.32 326.56 492.929 327.168 493.679 327.168H496.155C496.906 327.168 497.514 326.56 497.514 325.809C497.514 325.059 496.906 324.451 496.155 324.451Z" fill="white"/>
<path d="M504.177 324.451H501.701C500.95 324.451 500.342 325.059 500.342 325.809C500.342 326.56 500.95 327.168 501.701 327.168H504.177C504.927 327.168 505.536 326.56 505.536 325.809C505.536 325.059 504.927 324.451 504.177 324.451Z" fill="white"/>
<path d="M488.453 324.224H473.066C472.315 324.224 471.707 324.833 471.707 325.583C471.707 326.333 472.315 326.941 473.066 326.941H488.453C489.204 326.941 489.812 326.333 489.812 325.583C489.812 324.833 489.204 324.224 488.453 324.224Z" fill="white"/>
<path d="M526.205 324.224H510.818C510.067 324.224 509.459 324.833 509.459 325.583C509.459 326.333 510.067 326.941 510.818 326.941H526.205C526.956 326.941 527.564 326.333 527.564 325.583C527.564 324.833 526.956 324.224 526.205 324.224Z" fill="white"/>
<path d="M475.391 330.583H472.916C472.165 330.583 471.557 331.191 471.557 331.942C471.557 332.692 472.165 333.3 472.916 333.3H475.391C476.142 333.3 476.75 332.692 476.75 331.942C476.75 331.191 476.142 330.583 475.391 330.583Z" fill="white"/>
<path d="M503.706 330.583H501.23C500.48 330.583 499.871 331.191 499.871 331.942C499.871 332.692 500.48 333.3 501.23 333.3H503.706C504.456 333.3 505.065 332.692 505.065 331.942C505.065 331.191 504.456 330.583 503.706 330.583Z" fill="white"/>
<path d="M511.727 330.583H509.252C508.501 330.583 507.893 331.191 507.893 331.942C507.893 332.692 508.501 333.3 509.252 333.3H511.727C512.478 333.3 513.086 332.692 513.086 331.942C513.086 331.191 512.478 330.583 511.727 330.583Z" fill="white"/>
<path d="M496.004 330.357H480.617C479.866 330.357 479.258 330.965 479.258 331.715C479.258 332.465 479.866 333.074 480.617 333.074H496.004C496.754 333.074 497.363 332.465 497.363 331.715C497.363 330.965 496.754 330.357 496.004 330.357Z" fill="white"/>
<path d="M481.054 354.968H478.578C477.827 354.968 477.219 355.576 477.219 356.326C477.219 357.076 477.827 357.685 478.578 357.685H481.054C481.804 357.685 482.413 357.076 482.413 356.326C482.413 355.576 481.804 354.968 481.054 354.968Z" fill="white"/>
<path d="M489.077 354.968H486.601C485.851 354.968 485.242 355.576 485.242 356.326C485.242 357.076 485.851 357.685 486.601 357.685H489.077C489.828 357.685 490.436 357.076 490.436 356.326C490.436 355.576 489.828 354.968 489.077 354.968Z" fill="white"/>
<path d="M511.105 355.194H495.718C494.968 355.194 494.359 355.802 494.359 356.553C494.359 357.303 494.968 357.911 495.718 357.911H511.105C511.856 357.911 512.464 357.303 512.464 356.553C512.464 355.802 511.856 355.194 511.105 355.194Z" fill="white"/>
<path d="M452.739 354.968H450.263C449.513 354.968 448.904 355.576 448.904 356.326C448.904 357.076 449.513 357.685 450.263 357.685H452.739C453.49 357.685 454.098 357.076 454.098 356.326C454.098 355.576 453.49 354.968 452.739 354.968Z" fill="white"/>
<path d="M473.351 355.194H457.965C457.214 355.194 456.605 355.802 456.605 356.553C456.605 357.303 457.214 357.911 457.965 357.911H473.351C474.102 357.911 474.71 357.303 474.71 356.553C474.71 355.802 474.102 355.194 473.351 355.194Z" fill="white"/>
<path d="M460.29 348.835H457.814C457.064 348.835 456.455 349.444 456.455 350.194C456.455 350.944 457.064 351.552 457.814 351.552H460.29C461.04 351.552 461.649 350.944 461.649 350.194C461.649 349.444 461.04 348.835 460.29 348.835Z" fill="white"/>
<path d="M488.604 348.835H486.129C485.378 348.835 484.77 349.444 484.77 350.194C484.77 350.944 485.378 351.552 486.129 351.552H488.604C489.355 351.552 489.963 350.944 489.963 350.194C489.963 349.444 489.355 348.835 488.604 348.835Z" fill="white"/>
<path d="M496.628 348.835H494.152C493.401 348.835 492.793 349.444 492.793 350.194C492.793 350.944 493.401 351.552 494.152 351.552H496.628C497.378 351.552 497.987 350.944 497.987 350.194C497.987 349.444 497.378 348.835 496.628 348.835Z" fill="white"/>
<path d="M480.902 349.062H465.515C464.765 349.062 464.156 349.67 464.156 350.42C464.156 351.171 464.765 351.779 465.515 351.779H480.902C481.653 351.779 482.261 351.171 482.261 350.42C482.261 349.67 481.653 349.062 480.902 349.062Z" fill="white"/>
<path d="M467.841 342.703H465.365C464.614 342.703 464.006 343.311 464.006 344.062C464.006 344.812 464.614 345.42 465.365 345.42H467.841C468.591 345.42 469.2 344.812 469.2 344.062C469.2 343.311 468.591 342.703 467.841 342.703Z" fill="white"/>
<path d="M496.155 342.703H493.679C492.929 342.703 492.32 343.311 492.32 344.062C492.32 344.812 492.929 345.42 493.679 345.42H496.155C496.906 345.42 497.514 344.812 497.514 344.062C497.514 343.311 496.906 342.703 496.155 342.703Z" fill="white"/>
<path d="M504.177 342.703H501.701C500.95 342.703 500.342 343.311 500.342 344.062C500.342 344.812 500.95 345.42 501.701 345.42H504.177C504.927 345.42 505.536 344.812 505.536 344.062C505.536 343.311 504.927 342.703 504.177 342.703Z" fill="white"/>
<path d="M488.453 342.93H473.066C472.315 342.93 471.707 343.538 471.707 344.288C471.707 345.038 472.315 345.647 473.066 345.647H488.453C489.204 345.647 489.812 345.038 489.812 344.288C489.812 343.538 489.204 342.93 488.453 342.93Z" fill="white"/>
<path d="M475.391 336.571H472.916C472.165 336.571 471.557 337.179 471.557 337.929C471.557 338.68 472.165 339.288 472.916 339.288H475.391C476.142 339.288 476.75 338.68 476.75 337.929C476.75 337.179 476.142 336.571 475.391 336.571Z" fill="white"/>
<path d="M503.706 336.571H501.23C500.48 336.571 499.871 337.179 499.871 337.929C499.871 338.68 500.48 339.288 501.23 339.288H503.706C504.456 339.288 505.065 338.68 505.065 337.929C505.065 337.179 504.456 336.571 503.706 336.571Z" fill="white"/>
<path d="M511.727 336.571H509.252C508.501 336.571 507.893 337.179 507.893 337.929C507.893 338.68 508.501 339.288 509.252 339.288H511.727C512.478 339.288 513.086 338.68 513.086 337.929C513.086 337.179 512.478 336.571 511.727 336.571Z" fill="white"/>
<path d="M496.004 336.797H480.617C479.866 336.797 479.258 337.406 479.258 338.156C479.258 338.906 479.866 339.514 480.617 339.514H496.004C496.754 339.514 497.363 338.906 497.363 338.156C497.363 337.406 496.754 336.797 496.004 336.797Z" fill="white"/>
<path d="M439.577 426.835L427.955 408.472L464.435 379.404L479.492 362.729C481.448 360.563 483.939 358.947 486.715 358.045C489.492 357.142 492.456 356.983 495.313 357.585C498.17 358.186 500.819 359.527 502.995 361.472C505.171 363.417 506.799 365.9 507.715 368.671C509.072 372.777 508.78 377.25 506.901 381.145C505.021 385.041 501.702 388.054 497.642 389.549L473.832 398.317L439.577 426.835Z" fill="#FFB6B6"/>
<path d="M166.885 293.688V382.94H229.437V293.688C229.438 293.046 229.233 292.421 228.852 291.904C228.471 291.387 227.935 291.006 227.321 290.817C227.032 290.721 226.729 290.674 226.425 290.677H169.906C169.51 290.677 169.117 290.754 168.751 290.905C168.384 291.056 168.052 291.277 167.771 291.557C167.49 291.837 167.268 292.169 167.116 292.535C166.964 292.9 166.885 293.292 166.885 293.688ZM191.296 324.356C191.313 322.596 192.023 320.914 193.274 319.676C194.524 318.437 196.213 317.742 197.974 317.742C199.734 317.742 201.423 318.437 202.674 319.676C203.924 320.914 204.635 322.596 204.651 324.356V334.711C204.642 336.476 203.935 338.165 202.683 339.409C201.432 340.654 199.739 341.352 197.974 341.352C196.209 341.352 194.515 340.654 193.264 339.409C192.013 338.165 191.305 336.476 191.296 334.711V324.356Z" fill="#2F2E41"/>
<path d="M166.693 380.086V388.692C166.695 389.138 166.872 389.565 167.187 389.881C167.501 390.197 167.928 390.377 168.374 390.38H227.948C228.395 390.378 228.822 390.199 229.137 389.883C229.452 389.567 229.629 389.138 229.629 388.692V380.086H166.693Z" fill="#3F3D56"/>
<path d="M68.4805 159.219V322.18C68.4821 324.257 69.3081 326.248 70.7772 327.716C72.2463 329.185 74.2383 330.01 76.3158 330.012H317.905C319.983 330.01 321.975 329.185 323.444 327.716C324.913 326.248 325.739 324.257 325.741 322.18V159.219C325.736 157.144 324.908 155.156 323.44 153.69C321.971 152.223 319.981 151.399 317.905 151.396H76.3158C74.2401 151.399 72.25 152.223 70.7814 153.69C69.3128 155.156 68.4854 157.144 68.4805 159.219Z" fill="#3F3D56"/>
<path d="M74.1484 161.247V320.17C74.1504 321.279 74.5921 322.343 75.377 323.127C76.1619 323.912 77.226 324.354 78.336 324.355H315.895C317.005 324.354 318.069 323.912 318.854 323.127C319.639 322.343 320.08 321.279 320.082 320.17V161.247C320.082 160.136 319.641 159.071 318.856 158.284C318.071 157.498 317.006 157.055 315.895 157.052H78.336C77.2246 157.055 76.1596 157.498 75.3745 158.284C74.5895 159.071 74.1486 160.136 74.1484 161.247Z" fill="white"/>
<path d="M118.235 389.797C118.477 390.1 118.784 390.345 119.134 390.512C119.484 390.679 119.867 390.765 120.255 390.763H261.587C261.974 390.763 262.355 390.676 262.704 390.51C263.053 390.343 263.36 390.101 263.604 389.801C263.847 389.501 264.021 389.151 264.111 388.775C264.202 388.4 264.208 388.009 264.129 387.63L261.935 377.214C261.844 376.789 261.648 376.394 261.366 376.064C261.083 375.734 260.722 375.48 260.316 375.325C260.022 375.21 259.709 375.151 259.393 375.151H122.44C122.124 375.151 121.811 375.21 121.517 375.325C121.111 375.48 120.75 375.734 120.467 376.064C120.185 376.394 119.989 376.789 119.898 377.214L117.704 387.63C117.626 388.008 117.633 388.399 117.725 388.774C117.817 389.149 117.991 389.498 118.235 389.797Z" fill="#2F2E41"/>
<path d="M308.184 178.945H85.9016C85.6706 178.94 85.4508 178.844 85.2892 178.679C85.1276 178.514 85.0371 178.292 85.0371 178.061C85.0371 177.83 85.1276 177.608 85.2892 177.443C85.4508 177.278 85.6706 177.183 85.9016 177.178H308.184C308.415 177.183 308.635 177.278 308.797 177.443C308.958 177.608 309.049 177.83 309.049 178.061C309.049 178.292 308.958 178.514 308.797 178.679C308.635 178.844 308.415 178.94 308.184 178.945Z" fill="#3F3D56"/>
<path d="M101.034 172.666C103.895 172.666 106.214 170.296 106.214 167.372C106.214 164.449 103.895 162.079 101.034 162.079C98.1729 162.079 95.8535 164.449 95.8535 167.372C95.8535 170.296 98.1729 172.666 101.034 172.666Z" fill="#3F3D56"/>
<path d="M118.928 172.666C121.79 172.666 124.109 170.296 124.109 167.372C124.109 164.449 121.79 162.079 118.928 162.079C116.067 162.079 113.748 164.449 113.748 167.372C113.748 170.296 116.067 172.666 118.928 172.666Z" fill="#3F3D56"/>
<path d="M136.825 172.666C139.686 172.666 142.005 170.296 142.005 167.372C142.005 164.449 139.686 162.079 136.825 162.079C133.964 162.079 131.645 164.449 131.645 167.372C131.645 170.296 133.964 172.666 136.825 172.666Z" fill="#3F3D56"/>
<path d="M297.408 163.388H284.698C284.446 163.394 284.207 163.498 284.032 163.677C283.856 163.857 283.758 164.098 283.758 164.349C283.758 164.601 283.856 164.842 284.032 165.022C284.207 165.201 284.446 165.305 284.698 165.311H297.408C297.661 165.307 297.902 165.205 298.08 165.025C298.257 164.845 298.357 164.602 298.357 164.349C298.357 164.097 298.257 163.854 298.08 163.674C297.902 163.494 297.661 163.391 297.408 163.388Z" fill="#3F3D56"/>
<path d="M297.409 166.999H284.699C284.447 167.005 284.208 167.109 284.032 167.288C283.856 167.468 283.758 167.709 283.758 167.961C283.758 168.212 283.856 168.454 284.032 168.633C284.208 168.813 284.447 168.917 284.699 168.922H297.409C297.663 168.919 297.904 168.817 298.082 168.637C298.26 168.457 298.36 168.214 298.36 167.961C298.36 167.708 298.26 167.465 298.082 167.285C297.904 167.105 297.663 167.002 297.409 166.999Z" fill="#3F3D56"/>
<path d="M297.408 170.611H284.698C284.446 170.617 284.207 170.72 284.032 170.9C283.856 171.08 283.758 171.321 283.758 171.572C283.758 171.824 283.856 172.065 284.032 172.245C284.207 172.424 284.446 172.528 284.698 172.534H297.408C297.661 172.53 297.902 172.427 298.08 172.248C298.257 172.068 298.357 171.825 298.357 171.572C298.357 171.32 298.257 171.077 298.08 170.897C297.902 170.717 297.661 170.614 297.408 170.611Z" fill="#3F3D56"/>
<path d="M603.839 383.863C604.222 384.979 604.95 385.945 605.917 386.622C606.884 387.299 608.041 387.653 609.222 387.632L632.285 387.038C633.474 387.015 634.624 386.608 635.563 385.878C636.501 385.147 637.178 384.133 637.492 382.986L640.756 348.1C641.914 348.625 643.174 348.884 644.445 348.858C645.55 348.83 646.638 348.586 647.647 348.138C648.657 347.69 649.568 347.047 650.329 346.247C651.09 345.447 651.686 344.505 652.083 343.475C652.48 342.444 652.67 341.346 652.643 340.242C652.615 339.138 652.37 338.051 651.922 337.042C651.474 336.033 650.831 335.122 650.031 334.361C649.23 333.6 648.288 333.004 647.257 332.607C646.226 332.21 645.127 332.02 644.023 332.048C643.515 332.046 643.008 332.099 642.512 332.205C641.971 331.621 641.315 331.156 640.584 330.841C639.853 330.526 639.064 330.367 638.268 330.375L602.791 331.291C602.497 331.302 602.204 331.338 601.916 331.4C601.138 331.545 600.4 331.854 599.752 332.308C599.104 332.762 598.561 333.35 598.159 334.031C597.757 334.713 597.505 335.472 597.422 336.259C597.338 337.046 597.424 337.841 597.674 338.592L603.839 383.863ZM641.425 345.732L643.748 337.419C644.012 336.458 644.018 335.445 643.765 334.482C643.878 334.482 643.977 334.428 644.09 334.428C645.683 334.395 647.223 334.995 648.374 336.095C649.525 337.196 650.192 338.708 650.229 340.3C650.266 341.891 649.671 343.433 648.573 344.586C647.475 345.739 645.964 346.41 644.372 346.452C643.342 346.484 642.324 346.235 641.425 345.732Z" fill="#2F2E41"/>
<path d="M601.918 331.399C602.674 335.719 611.172 338.756 621.39 338.228C630.786 337.796 638.468 334.498 639.876 330.589C639.355 330.435 638.813 330.363 638.27 330.375L602.793 331.291C602.499 331.302 602.206 331.338 601.918 331.399Z" fill="#3F3D56"/>
<path d="M623.262 364.693C623.309 364.681 623.353 364.662 623.394 364.635L628.402 361.358C628.463 361.319 628.513 361.265 628.547 361.201C628.581 361.138 628.6 361.067 628.6 360.994C628.6 360.922 628.582 360.851 628.547 360.787C628.513 360.724 628.463 360.67 628.403 360.63L623.197 357.222C623.149 357.19 623.095 357.169 623.039 357.158C622.983 357.147 622.925 357.147 622.869 357.159C622.813 357.17 622.759 357.193 622.712 357.225C622.665 357.257 622.624 357.298 622.593 357.346C622.561 357.394 622.54 357.448 622.529 357.504C622.518 357.56 622.519 357.618 622.531 357.674C622.543 357.73 622.565 357.783 622.598 357.831C622.63 357.878 622.672 357.918 622.72 357.949L627.369 360.994L622.917 363.907C622.831 363.963 622.768 364.049 622.738 364.147C622.709 364.246 622.715 364.352 622.757 364.446C622.798 364.54 622.872 364.617 622.964 364.662C623.057 364.707 623.162 364.718 623.262 364.693H623.262Z" fill="#C1FAFF"/>
<path d="M615.351 365.058C615.435 365.036 615.511 364.99 615.568 364.926C615.626 364.861 615.663 364.781 615.675 364.695C615.687 364.609 615.673 364.522 615.635 364.444C615.596 364.366 615.536 364.302 615.461 364.258L610.844 361.613L615.306 358.299C615.352 358.265 615.391 358.223 615.42 358.174C615.449 358.125 615.469 358.07 615.477 358.014C615.485 357.957 615.482 357.9 615.468 357.844C615.455 357.789 615.43 357.737 615.396 357.691C615.362 357.645 615.319 357.607 615.27 357.577C615.221 357.548 615.167 357.529 615.11 357.52C615.054 357.512 614.996 357.515 614.941 357.529C614.885 357.543 614.833 357.567 614.787 357.601L609.791 361.311C609.733 361.354 609.687 361.411 609.656 361.476C609.626 361.542 609.612 361.614 609.616 361.686C609.62 361.758 609.642 361.828 609.68 361.889C609.719 361.95 609.771 362.001 609.834 362.037L615.027 365.013C615.125 365.069 615.241 365.085 615.351 365.058Z" fill="#C1FAFF"/>
<path d="M622.763 367.565C622.805 367.554 622.845 367.537 622.882 367.514C622.931 367.485 622.974 367.446 623.008 367.4C623.041 367.353 623.066 367.301 623.079 367.246C623.093 367.19 623.095 367.132 623.087 367.076C623.078 367.019 623.058 366.965 623.028 366.916L615.928 355.248C615.868 355.15 615.771 355.079 615.659 355.052C615.547 355.025 615.429 355.043 615.33 355.103C615.231 355.163 615.161 355.26 615.133 355.372C615.106 355.484 615.124 355.602 615.184 355.701L622.284 367.369C622.333 367.449 622.405 367.511 622.492 367.546C622.578 367.581 622.673 367.588 622.763 367.565Z" fill="#C1FAFF"/>
<path d="M223.603 226.981H185.131C183.561 226.981 182.289 228.253 182.289 229.822V233.579C182.289 235.148 183.561 236.42 185.131 236.42H223.603C225.173 236.42 226.445 235.148 226.445 233.579V229.822C226.445 228.253 225.173 226.981 223.603 226.981Z" fill="#C1FAFF"/>
<path d="M246.028 245.858H162.705C161.136 245.858 159.863 247.13 159.863 248.699V252.456C159.863 254.025 161.136 255.296 162.705 255.296H246.028C247.597 255.296 248.869 254.025 248.869 252.456V248.699C248.869 247.13 247.597 245.858 246.028 245.858Z" fill="#E6E6E6"/>
<path d="M246.028 264.735H162.705C161.136 264.735 159.863 266.007 159.863 267.575V271.333C159.863 272.901 161.136 274.173 162.705 274.173H246.028C247.597 274.173 248.869 272.901 248.869 271.333V267.575C248.869 266.007 247.597 264.735 246.028 264.735Z" fill="#E6E6E6"/>
<path d="M253.092 327.945L253.28 328.541L253.29 328.561L258.971 345.825L265.506 365.719L277.801 403.106L277.92 408.913V408.933L278.834 455.651L276.302 461.985L279.152 472.369C279.152 472.369 277.841 456.672 270.809 465.686C266.827 470.809 262.169 476.051 258.346 480.965C263.917 483.218 269.578 485.257 275.328 487.08C276.57 487.477 277.821 487.854 279.072 488.232C279.341 488.311 279.609 488.39 279.877 488.47C298.938 494.104 318.644 497.271 338.512 497.891C339.545 497.921 340.558 497.94 341.541 497.96C341.889 497.97 342.226 497.98 342.564 497.98C343.676 497.99 344.779 498 345.891 498C348.136 498 350.37 497.967 352.595 497.901C369.061 497.437 385.43 495.224 401.428 491.299C401.318 484.697 401.021 476.984 400.593 468.744C400.395 464.704 395.936 460.326 395.667 456.097C395.479 452.92 399.481 449.932 399.273 446.705C397.922 426.841 396.234 434.466 394.982 420.399C394.853 419.019 394.734 417.699 394.625 416.438C393.82 407.404 393.264 401.755 393.264 401.755L398.607 368.092L406.999 315.238L406.354 314.176L405.629 313.819L361.364 291.919L358.961 285.764C358.261 283.991 357.046 282.467 355.472 281.39C353.899 280.313 352.039 279.73 350.132 279.718L320.973 279.599C319.46 279.592 317.967 279.946 316.618 280.632C315.269 281.317 314.103 282.314 313.217 283.54L305.321 294.47L253.092 327.945Z" fill="#3F3D56"/>
<path d="M284.524 394.786L277.919 408.913L273.411 418.562L265.654 459.156L261.771 463.275L258.444 448.691L223.622 456.419C222.48 450.076 223.316 456.634 222.611 449.675C222.81 449.476 223.018 449.278 223.227 449.079C223.783 448.563 224.25 448.076 224.24 447.61C223.843 423.606 225.035 382.754 234.986 358.005C236.544 353.965 238.599 350.133 241.104 346.599C241.302 346.331 241.491 346.063 241.68 345.795C246.268 339.372 249.168 333.048 253.28 328.551V328.541C253.305 328.52 253.329 328.497 253.349 328.471C253.364 328.464 253.378 328.454 253.389 328.442L281.634 313.471L282.846 347.502L283.71 371.963L284.524 394.786Z" fill="#3F3D56"/>
<path d="M386.371 398.799L394.621 416.443L397.5 422.587L405.254 463.177L409.125 467.286L412.46 452.706L414.027 452.384L442.285 446.534L450.521 472.682C452.377 469.59 453.109 465.952 452.591 462.383C452.074 458.815 450.34 455.534 447.682 453.096C447.119 452.588 446.651 452.092 446.664 451.624C447.133 423.391 445.405 371.837 429.803 350.619C424.848 343.885 421.875 337.178 417.549 332.493C417.535 332.48 417.535 332.466 417.522 332.466L406.995 315.237L406.353 314.18L405.629 313.818L386.371 398.799Z" fill="#3F3D56"/>
<path d="M336.394 271.304C357.818 271.304 375.186 253.943 375.186 232.528C375.186 211.112 357.818 193.752 336.394 193.752C314.969 193.752 297.602 211.112 297.602 232.528C297.602 253.943 314.969 271.304 336.394 271.304Z" fill="#FFB6B6"/>
<path d="M388.826 205.443C388.525 205.122 388.163 204.864 387.76 204.687C387.358 204.509 386.924 204.414 386.484 204.407L387.067 202.789C387.258 202.279 387.309 201.727 387.216 201.191C387.123 200.655 386.889 200.153 386.539 199.737C386.188 199.321 385.733 199.005 385.22 198.823C384.707 198.64 384.155 198.597 383.62 198.698L381.495 199.107L381.696 197.689C381.772 197.161 381.71 196.622 381.515 196.124C381.32 195.627 380.999 195.19 380.584 194.854C380.168 194.519 379.673 194.297 379.146 194.211C378.619 194.126 378.078 194.178 377.578 194.365C377.122 194.544 376.633 194.619 376.145 194.584C375.657 194.55 375.182 194.406 374.757 194.165C374.33 193.93 373.959 193.606 373.67 193.213C373.382 192.821 373.182 192.371 373.085 191.893L372.345 188.325L372.267 188.134C368.663 182.129 361.733 177.761 353.253 176.159C345.705 174.723 337.966 175.454 330.505 176.142C327.545 176.42 324.202 176.734 321.416 178.439C319.048 179.901 317.045 182.825 317.455 185.775C310.098 183.521 302.21 188.021 298.302 193.695C293.67 200.448 292.913 208.906 292.791 215.52C292.46 231.167 295.69 243.968 302.367 253.576C302.855 254.272 302.977 255.725 303.943 256.212L303.743 255.89C304.822 256.43 305.919 257.3 305.51 258.231C304.335 260.912 312.144 266.838 317.646 268.796C327.684 272.373 341.03 272.068 350.415 270.78L350.746 268.561C354.133 268.1 356.518 267.221 357.188 265.846C358.372 264.836 359.382 263.931 360.262 263.096L360.27 263.087C360.288 263.07 360.323 263.044 360.34 263.026C364.58 258.962 365.563 256.648 366.007 253.123C366.434 249.668 365.677 246.161 364.902 243.002C381.217 245.526 358.477 225.632 373.677 221.786C373.852 221.732 374.029 221.689 374.208 221.655C374.652 221.551 375.096 221.446 375.523 221.325C377.579 220.767 379.548 219.926 381.373 218.827C385.622 216.242 387.024 212.814 389.218 208.95C389.534 208.4 389.667 207.763 389.596 207.132C389.526 206.501 389.256 205.91 388.826 205.443Z" fill="#2F2E41"/>
<path d="M473.595 401.559C473.586 403.082 473.569 405.214 473.499 407.851C473.491 408.217 473.482 408.591 473.473 408.974C473.36 413.821 473.247 417.885 473.064 422.402C473.055 422.715 473.046 423.019 473.029 423.333C472.785 429.633 472.402 436.969 471.741 448.587C470.513 470.047 468.371 451.537 466.221 459.065C466.117 459.439 466.003 459.883 465.899 460.405C465.573 462.299 465.024 464.148 464.262 465.913C463.122 466.592 461.946 467.245 460.789 467.898C457.489 469.734 454.137 471.5 450.759 473.18C448.861 474.12 446.955 475.042 445.04 475.93C444.735 476.069 444.439 476.208 444.143 476.339C434.335 480.874 424.227 484.729 413.89 487.878C411.87 488.487 409.859 489.079 407.822 489.627C405.697 490.219 403.573 490.776 401.423 491.298C385.426 495.224 369.057 497.438 352.591 497.903C350.371 497.973 348.134 497.999 345.888 497.999C344.773 497.999 343.676 497.99 342.562 497.982C342.223 497.982 341.883 497.973 341.543 497.964C340.56 497.938 339.541 497.921 338.514 497.895C318.646 497.275 298.94 494.108 279.879 488.47L279.07 488.235C277.816 487.852 276.571 487.478 275.326 487.078C269.58 485.259 263.918 483.223 258.341 480.969C254.084 479.254 249.876 477.415 245.717 475.451C245.679 475.441 245.644 475.423 245.613 475.399C244.742 474.999 243.863 474.581 242.992 474.155C242.879 474.094 242.757 474.033 242.635 473.972C239.388 472.388 236.176 470.729 232.998 468.994C230.325 462.859 226.564 461.684 224.231 456.289C223.552 454.686 223.061 453.009 222.768 451.293C222.768 451.276 222.76 451.259 222.76 451.233C223.003 454.47 221.724 445.489 222.751 451.198C222.742 451.093 222.734 450.98 222.725 450.85C222.699 450.536 222.664 450.154 222.612 449.675C219.626 420.531 219.817 387.201 218.52 359.736C218.433 357.961 218.343 356.261 218.25 354.636C218.224 354.097 218.189 353.566 218.154 353.044C218.215 352.887 218.285 352.722 218.363 352.565C218.38 352.52 218.4 352.476 218.424 352.435C218.45 352.381 218.479 352.328 218.511 352.278C218.529 352.252 218.555 352.217 218.572 352.191C218.585 352.161 218.599 352.132 218.616 352.104C218.694 351.982 218.781 351.852 218.877 351.73C218.92 351.677 218.955 351.634 218.999 351.59C219.029 351.546 219.064 351.505 219.103 351.469C219.13 351.427 219.162 351.389 219.199 351.355C219.234 351.321 219.269 351.277 219.312 351.234C219.331 351.206 219.354 351.183 219.382 351.164C219.451 351.085 219.526 351.012 219.608 350.947C219.919 350.661 220.251 350.399 220.601 350.163C220.723 350.085 220.853 350.007 220.975 349.92C221.852 349.395 222.776 348.952 223.735 348.597C224.066 348.475 224.396 348.362 224.753 348.24C224.884 348.205 225.006 348.162 225.136 348.118C225.328 348.057 225.52 347.996 225.72 347.953C226.712 347.657 227.783 347.405 228.941 347.17C229.08 347.144 229.228 347.117 229.376 347.083C229.585 347.039 229.803 347.004 230.02 346.97C230.316 346.917 230.621 346.865 230.926 346.813C233.512 346.404 236.445 346.099 239.684 345.899C239.989 345.882 240.293 345.864 240.598 345.847C240.955 345.83 241.312 345.812 241.678 345.795C241.982 345.777 242.296 345.769 242.609 345.76C242.914 345.742 243.227 345.734 243.549 345.725C244.429 345.699 245.334 345.673 246.257 345.655C248.886 345.603 251.655 345.621 254.563 345.682C255.912 345.716 257.287 345.751 258.698 345.812C258.794 345.812 258.881 345.821 258.968 345.821C260.195 345.864 261.431 345.917 262.703 345.986C263.591 346.03 264.487 346.073 265.384 346.125C266.228 346.178 267.082 346.23 267.943 346.291C268.614 346.326 269.284 346.378 269.963 346.421C270.538 346.465 271.112 346.508 271.687 346.543L272.471 346.595C272.897 346.63 273.324 346.656 273.759 346.7C274.717 346.778 275.674 346.856 276.649 346.935C277.616 347.022 278.6 347.109 279.583 347.196C280.567 347.283 281.56 347.379 282.552 347.474C282.656 347.483 282.752 347.492 282.848 347.5C283.753 347.596 284.659 347.683 285.573 347.779C285.782 347.796 286 347.814 286.209 347.84C287.08 347.927 287.969 348.03 288.848 348.123C289.118 348.152 289.387 348.18 289.657 348.21C290.346 348.285 291.025 348.35 291.719 348.432C292.633 348.536 293.565 348.632 294.47 348.753C295.176 348.832 295.881 348.91 296.586 348.997C297.692 349.128 298.815 349.267 299.938 349.415C300.364 349.467 300.791 349.519 301.217 349.58C304.421 349.981 307.66 350.424 310.951 350.886C315.939 351.59 321.006 352.356 326.108 353.183C331.218 354.01 336.358 354.883 341.526 355.802C342.832 356.037 344.138 356.272 345.452 356.516C346.044 356.629 346.636 356.742 347.228 356.855C348.238 357.038 349.248 357.23 350.258 357.421C351.268 357.612 352.278 357.804 353.288 358.004C354.489 358.239 355.699 358.474 356.901 358.709C364.814 360.275 372.684 361.946 380.363 363.695C381.625 363.983 382.888 364.279 384.141 364.566C386.649 365.149 389.133 365.74 391.594 366.341C392.273 366.498 392.943 366.663 393.614 366.828C395.285 367.246 396.957 367.664 398.602 368.09L398.889 368.168C400.099 368.464 401.283 368.769 402.467 369.082C405.262 369.813 408.01 370.553 410.712 371.301C412.505 371.797 414.279 372.299 416.031 372.807C418.652 373.564 421.22 374.33 423.719 375.104C424.337 375.296 424.955 375.487 425.564 375.67C427.392 376.236 429.195 376.81 430.945 377.384C432.337 377.837 433.696 378.298 435.036 378.759C436.377 379.22 437.692 379.682 438.98 380.143C439.807 380.439 440.626 380.752 441.444 381.048C442.619 381.483 443.777 381.918 444.909 382.353C445.257 382.484 445.597 382.623 445.936 382.754C446.154 382.849 446.363 382.928 446.572 383.015C446.981 383.18 447.399 383.337 447.799 383.502C448.208 383.659 448.609 383.824 449.009 383.998C449.401 384.155 449.802 384.32 450.185 384.485C450.576 384.642 450.959 384.807 451.343 384.981C451.665 385.112 451.978 385.251 452.283 385.39C452.901 385.66 453.519 385.93 454.12 386.208C454.416 386.348 454.712 386.478 455.008 386.617L455.687 386.931C455.783 386.983 455.878 387.026 455.974 387.07C456.192 387.174 456.418 387.288 456.636 387.392C457.141 387.627 457.637 387.879 458.124 388.114C458.777 388.445 459.413 388.776 460.022 389.098C460.64 389.428 461.241 389.759 461.816 390.081C461.912 390.133 461.999 390.185 462.094 390.238C462.225 390.307 462.356 390.386 462.486 390.455C462.93 390.708 463.357 390.969 463.783 391.221C464.619 391.734 465.411 392.239 466.151 392.744C466.317 392.857 466.473 392.97 466.639 393.075C467.187 393.466 467.71 393.849 468.197 394.241C468.197 394.249 468.197 394.249 468.206 394.249C468.371 394.371 468.528 394.502 468.685 394.624C468.815 394.745 468.955 394.85 469.085 394.972C469.538 395.363 469.956 395.737 470.339 396.12C470.467 396.239 470.589 396.364 470.705 396.495C470.755 396.537 470.802 396.583 470.844 396.634C471.018 396.808 471.175 396.982 471.323 397.156C471.346 397.18 471.366 397.206 471.384 397.234C471.593 397.478 471.784 397.722 471.967 397.965C472.054 398.087 472.15 398.209 472.228 398.331C472.333 398.479 472.437 398.635 472.524 398.783C472.602 398.905 472.672 399.036 472.742 399.158C472.926 399.471 473.084 399.8 473.212 400.141C473.31 400.372 473.388 400.611 473.447 400.854C473.513 401.086 473.562 401.321 473.595 401.559Z" fill="#2F2E41"/>
<path opacity="0.2" d="M473.596 401.559C473.587 403.082 473.57 405.214 473.5 407.851C473.491 408.217 473.474 408.591 473.465 408.974C473.378 412.672 473.248 417.241 473.065 422.402C473.056 422.715 473.047 423.02 473.03 423.333C472.786 429.633 472.403 436.969 471.742 448.587C470.514 470.047 468.372 451.537 466.222 459.065C460.25 455.392 453.703 451.546 446.703 447.595C445.441 446.881 444.167 446.165 442.881 445.446C428.882 437.64 413.246 429.459 396.923 421.357C396.279 421.035 395.626 420.713 394.981 420.4C357.589 401.925 316.776 383.955 283.711 371.963C277.329 369.648 271.235 367.559 265.507 365.723C253.44 361.868 243.011 359.17 234.984 358.004C226.626 356.786 220.854 357.221 218.521 359.736C218.434 357.961 218.344 356.261 218.251 354.636C218.216 354.097 218.181 353.566 218.146 353.044C218.2 352.9 218.27 352.764 218.338 352.626C218.347 352.606 218.354 352.585 218.364 352.565C218.381 352.52 218.401 352.476 218.425 352.435C218.451 352.381 218.48 352.328 218.512 352.278C218.54 352.216 218.575 352.158 218.617 352.104C218.695 351.982 218.782 351.851 218.878 351.73C218.948 351.638 219.024 351.551 219.104 351.469C219.131 351.427 219.163 351.389 219.2 351.355C219.235 351.321 219.27 351.277 219.313 351.234C219.332 351.206 219.355 351.183 219.383 351.164C219.452 351.085 219.527 351.012 219.609 350.946C219.92 350.661 220.251 350.399 220.602 350.163C220.723 350.085 220.854 350.007 220.976 349.92C221.853 349.395 222.777 348.952 223.736 348.597C224.067 348.475 224.397 348.362 224.754 348.24C224.885 348.205 225.007 348.162 225.137 348.118C225.329 348.057 225.52 347.996 225.721 347.953C226.713 347.657 227.784 347.405 228.942 347.17C229.29 347.1 229.656 347.03 230.021 346.969C230.317 346.917 230.622 346.865 230.927 346.813C233.512 346.404 236.446 346.099 239.685 345.899C239.99 345.882 240.294 345.864 240.599 345.847C240.956 345.829 241.313 345.812 241.679 345.795C241.983 345.777 242.297 345.769 242.61 345.76C242.915 345.742 243.228 345.734 243.55 345.725C244.43 345.699 245.335 345.673 246.258 345.655C248.887 345.612 251.656 345.629 254.563 345.69C255.913 345.716 257.288 345.76 258.699 345.821C258.786 345.821 258.882 345.829 258.969 345.829C260.196 345.864 261.441 345.925 262.703 345.986C263.591 346.03 264.488 346.073 265.385 346.125C266.229 346.178 267.083 346.23 267.944 346.291C268.615 346.325 269.285 346.378 269.964 346.421C270.539 346.465 271.113 346.508 271.688 346.543C272.376 346.595 273.063 346.647 273.76 346.7C274.718 346.778 275.675 346.856 276.65 346.935C277.617 347.022 278.6 347.109 279.584 347.196C280.568 347.283 281.56 347.378 282.553 347.474C282.657 347.483 282.753 347.492 282.849 347.5C283.754 347.596 284.66 347.683 285.574 347.779C290.641 348.292 295.856 348.893 301.218 349.58C304.422 349.989 307.667 350.427 310.952 350.894C315.94 351.599 321.007 352.365 326.109 353.183C331.219 354.01 336.359 354.883 341.527 355.802C342.833 356.037 344.139 356.272 345.453 356.516C347.055 356.812 348.657 357.113 350.259 357.421C351.269 357.612 352.279 357.804 353.289 358.004C354.49 358.239 355.7 358.474 356.902 358.709C364.815 360.275 372.685 361.946 380.364 363.695C381.626 363.983 382.889 364.278 384.142 364.566C386.65 365.149 389.134 365.74 391.595 366.341C392.274 366.506 392.944 366.672 393.614 366.837C395.295 367.255 396.958 367.672 398.603 368.09V368.099C398.699 368.116 398.795 368.142 398.89 368.168C400.092 368.473 401.284 368.778 402.468 369.091C405.263 369.822 408.011 370.559 410.713 371.301C412.506 371.806 414.282 372.302 416.032 372.807C418.653 373.573 421.221 374.338 423.72 375.104C424.338 375.296 424.956 375.487 425.565 375.67C427.394 376.244 429.187 376.816 430.946 377.384C432.338 377.837 433.697 378.298 435.037 378.759C436.378 379.22 437.693 379.682 438.981 380.143C439.817 380.439 440.635 380.743 441.445 381.039C442.629 381.474 443.778 381.909 444.91 382.353C445.258 382.484 445.598 382.623 445.937 382.754C446.573 382.997 447.191 383.25 447.8 383.502C448.209 383.659 448.61 383.824 449.01 383.998C449.402 384.155 449.803 384.32 450.186 384.485C450.577 384.642 450.96 384.807 451.344 384.981C451.666 385.112 451.979 385.251 452.284 385.39C452.902 385.66 453.52 385.93 454.121 386.208C454.417 386.348 454.713 386.478 455.009 386.617L455.688 386.931C455.784 386.983 455.879 387.026 455.975 387.07C456.715 387.418 457.429 387.766 458.125 388.114C458.778 388.445 459.414 388.776 460.023 389.098C460.746 389.48 461.434 389.855 462.095 390.238C462.226 390.307 462.356 390.386 462.487 390.455C462.931 390.708 463.358 390.969 463.784 391.221C464.62 391.734 465.412 392.239 466.152 392.744C466.884 393.249 467.563 393.745 468.198 394.241C468.198 394.249 468.198 394.249 468.207 394.249C468.512 394.493 468.808 394.737 469.086 394.972C469.539 395.363 469.957 395.737 470.34 396.12C470.468 396.239 470.59 396.363 470.705 396.495C470.756 396.537 470.803 396.583 470.845 396.634C471.028 396.834 471.21 397.034 471.385 397.234C471.594 397.478 471.785 397.722 471.968 397.965C472.055 398.087 472.151 398.209 472.229 398.331C472.334 398.479 472.438 398.635 472.525 398.783C472.603 398.905 472.673 399.036 472.743 399.158C472.928 399.471 473.085 399.8 473.213 400.141C473.308 400.373 473.387 400.611 473.448 400.854C473.514 401.086 473.563 401.321 473.596 401.559Z" fill="black"/>
</g>
<defs>
<clipPath id="clip0_171_2">
<rect width="685" height="498" fill="white"/>
</clipPath>
</defs>
</svg>
