<svg width="43" height="49" viewBox="0 0 43 49" fill="none" xmlns="http://www.w3.org/2000/svg">
<path d="M4.13978 44.0643L0.273987 0.707886H42.7512L38.8803 44.0574L21.4868 48.8797L4.13978 44.0643Z" fill="#E44F26"/>
<path d="M21.5126 45.1946L35.5684 41.2978L38.8751 4.25366H21.5126V45.1946Z" fill="#F1662A"/>
<path d="M21.5126 20.3328H14.4761L13.9909 14.8877H21.5126V9.56982H8.17932L8.30663 10.9978L9.61243 25.6506H21.5126V20.3328ZM21.5126 34.1426L21.4885 34.1495L15.5668 32.5512L15.1883 28.3104H9.84985L10.5948 36.6579L21.4885 39.6824L21.5126 39.6755V34.1426Z" fill="#EBEBEB"/>
<path d="M21.4937 20.3328V25.6506H28.0416L27.4257 32.5478L21.4937 34.1478V39.6807L32.396 36.6579L32.4751 35.7598L33.7241 21.7607L33.8549 20.3328H32.4218H21.4937ZM21.4937 9.56982V14.8877H34.3383L34.445 13.6937L34.6876 10.9978L34.8149 9.56982H21.4937Z" fill="white"/>
</svg>
