<svg width="50" height="49" viewBox="0 0 50 49" fill="none" xmlns="http://www.w3.org/2000/svg">
<path d="M0.963623 5.99504C0.963623 3.07502 3.33076 0.707886 6.25078 0.707886H43.8483C46.7683 0.707886 49.1355 3.07503 49.1355 5.99504V43.5926C49.1355 46.5126 46.7683 48.8797 43.8483 48.8797H6.25078C3.33076 48.8797 0.963623 46.5126 0.963623 43.5926V5.99504Z" fill="#F7DF1E"/>
<path d="M13.6298 40.9637L17.3161 38.7327C18.0274 39.9936 18.6743 41.0606 20.2261 41.0606C21.7136 41.0606 22.6517 40.4787 22.6517 38.2154V22.8234H27.1785V38.2794C27.1785 42.9681 24.4301 45.1023 20.4201 45.1023C16.7988 45.1023 14.6967 43.2268 13.6296 40.9633M29.6373 40.4786L33.3232 38.3445C34.2936 39.9291 35.5548 41.0931 37.7857 41.0931C39.6616 41.0931 40.8576 40.1553 40.8576 38.8618C40.8576 37.3097 39.6289 36.7599 37.5594 35.8548L36.4279 35.3693C33.1618 33.9793 30.9954 32.2331 30.9954 28.5468C30.9954 25.1514 33.5822 22.5645 37.6243 22.5645C40.5022 22.5645 42.5717 23.567 44.059 26.1862L40.5342 28.4499C39.7579 27.0595 38.9176 26.5098 37.6241 26.5098C36.2982 26.5098 35.4575 27.3506 35.4575 28.4499C35.4575 29.8079 36.2982 30.3579 38.2383 31.1987L39.3699 31.6836C43.218 33.3329 45.3845 35.0142 45.3845 38.7972C45.3845 42.8719 42.1833 45.1029 37.8826 45.1029C33.6791 45.1029 30.9628 43.0981 29.6372 40.4787" fill="black"/>
</svg>
