<svg width="48" height="43" viewBox="0 0 48 43" fill="none" xmlns="http://www.w3.org/2000/svg">
<path d="M24.363 26.0842C26.7325 26.0842 28.6533 24.1633 28.6533 21.7938C28.6533 19.4244 26.7325 17.5035 24.363 17.5035C21.9935 17.5035 20.0727 19.4244 20.0727 21.7938C20.0727 24.1633 21.9935 26.0842 24.363 26.0842Z" fill="#61DAFB"/>
<path d="M40.6586 14.7187C39.8307 14.4176 38.9651 14.1165 38.0619 13.8531C38.2877 12.9499 38.4759 12.0466 38.6264 11.181C39.4167 6.21332 38.5511 2.71333 36.1425 1.3585C35.4275 0.944519 34.6372 0.756348 33.7339 0.756348C31.0995 0.756348 27.7501 2.71333 24.363 5.98751C20.9759 2.71333 17.6265 0.756348 14.9921 0.756348C14.0889 0.756348 13.2985 0.944519 12.5835 1.3585C10.1749 2.75096 9.3093 6.25095 10.0996 11.181C10.2502 12.0466 10.4383 12.9499 10.6641 13.8531C9.76091 14.1165 8.89532 14.38 8.06737 14.7187C3.36309 16.5251 0.803955 19.009 0.803955 21.7939C0.803955 24.5788 3.40072 27.0627 8.06737 28.8691C8.89532 29.1702 9.76091 29.4713 10.6641 29.7347C10.4383 30.638 10.2502 31.5412 10.0996 32.4068C9.3093 37.3745 10.1749 40.8745 12.5835 42.2293C13.2985 42.6433 14.0889 42.8315 14.9921 42.8315C17.6641 42.8315 21.0136 40.8745 24.363 37.6003C27.7501 40.8745 31.0995 42.8315 33.7339 42.8315C34.6372 42.8315 35.4275 42.6433 36.1425 42.2293C38.5511 40.8368 39.4167 37.3369 38.6264 32.4068C38.4759 31.5412 38.2877 30.638 38.0619 29.7347C38.9651 29.4713 39.8307 29.2079 40.6586 28.8691C45.3629 27.0627 47.9221 24.5788 47.9221 21.7939C47.9221 19.009 45.3629 16.5251 40.6586 14.7187ZM35.0888 3.24021C36.6318 4.14343 37.1587 6.92837 36.5189 10.88C36.406 11.6703 36.2178 12.4982 35.992 13.3638C34.035 12.9122 31.9651 12.6111 29.7823 12.423C28.5028 10.6165 27.1856 8.99825 25.8684 7.53052C28.6533 4.78321 31.4759 2.9015 33.7716 2.9015C34.2608 2.9015 34.7124 3.0144 35.0888 3.24021ZM30.8737 25.5573C30.1963 26.7616 29.406 27.9659 28.578 29.1702C27.1856 29.2831 25.7931 29.3208 24.363 29.3208C22.8953 29.3208 21.5028 29.2831 20.148 29.1702C19.32 27.9659 18.5673 26.7616 17.8899 25.5573C17.1749 24.3154 16.4974 23.0358 15.8953 21.7939C16.4974 20.552 17.1749 19.2724 17.8899 18.0305C18.5673 16.8262 19.3576 15.6219 20.1856 14.4176C21.5781 14.3047 22.9705 14.267 24.4006 14.267C25.8684 14.267 27.2608 14.3047 28.6157 14.4176C29.4436 15.6219 30.1963 16.8262 30.8737 18.0305C31.5888 19.2724 32.2662 20.552 32.8683 21.7939C32.2286 23.0358 31.5888 24.2778 30.8737 25.5573ZM33.9974 24.3154C34.5619 25.6326 35.0135 26.9122 35.4275 28.1917C34.1479 28.4928 32.7931 28.7186 31.363 28.9068C31.8146 28.1917 32.3038 27.439 32.7178 26.6487C33.1694 25.8584 33.5834 25.0681 33.9974 24.3154ZM24.363 34.5143C23.4598 33.5358 22.5942 32.482 21.7662 31.3906C22.6318 31.4283 23.4974 31.4659 24.363 31.4659C25.2286 31.4659 26.0942 31.4283 26.9598 31.3906C26.1318 32.482 25.2662 33.5358 24.363 34.5143ZM17.363 28.8691C15.9329 28.681 14.5781 28.4552 13.2985 28.1541C13.7125 26.9122 14.1641 25.595 14.7286 24.2778C15.1426 25.0304 15.5566 25.8208 16.0082 26.5735C16.4598 27.4014 16.9114 28.1165 17.363 28.8691ZM14.7286 19.2724C14.1641 17.9552 13.7125 16.6756 13.2985 15.3961C14.5781 15.095 15.9329 14.8692 17.363 14.681C16.9114 15.3961 16.4222 16.1488 16.0082 16.9391C15.5566 17.7294 15.1426 18.5197 14.7286 19.2724ZM24.363 9.07352C25.2662 10.052 26.1318 11.1058 26.9598 12.1972C26.0942 12.1595 25.2286 12.1219 24.363 12.1219C23.4974 12.1219 22.6318 12.1595 21.7662 12.1972C22.5942 11.1058 23.4598 10.052 24.363 9.07352ZM32.7178 16.9767L31.363 14.7187C32.7931 14.9068 34.1479 15.1326 35.4275 15.4337C35.0135 16.6756 34.5619 17.9928 33.9974 19.31C33.5834 18.5197 33.1694 17.7294 32.7178 16.9767ZM12.2071 10.88C11.5674 6.92837 12.0942 4.14343 13.6372 3.24021C14.0136 3.0144 14.4652 2.9015 14.9544 2.9015C17.2125 2.9015 20.0351 4.74558 22.8576 7.53052C21.5404 8.96062 20.2232 10.6165 18.9437 12.423C16.7609 12.6111 14.691 12.9499 12.734 13.3638C12.5082 12.4982 12.3577 11.6703 12.2071 10.88ZM2.91147 21.7939C2.91147 20.0251 5.05663 18.1434 8.82005 16.7509C9.57274 16.4498 10.4007 16.1864 11.2286 15.9606C11.8308 17.8423 12.5835 19.8369 13.4867 21.8315C12.5835 23.8262 11.7932 25.7831 11.2286 27.6648C6.03512 26.1595 2.91147 23.9014 2.91147 21.7939ZM13.6372 40.3476C12.0942 39.4444 11.5674 36.6594 12.2071 32.7078C12.32 31.9175 12.5082 31.0896 12.734 30.224C14.691 30.6756 16.7609 30.9767 18.9437 31.1648C20.2232 32.9713 21.5404 34.5896 22.8576 36.0573C20.0727 38.8046 17.2501 40.6863 14.9544 40.6863C14.4652 40.6863 14.0136 40.5734 13.6372 40.3476ZM36.5189 32.7078C37.1587 36.6594 36.6318 39.4444 35.0888 40.3476C34.7124 40.5734 34.2608 40.6863 33.7716 40.6863C31.5135 40.6863 28.6909 38.8422 25.8684 36.0573C27.1856 34.6272 28.5028 32.9713 29.7823 31.1648C31.9651 30.9767 34.035 30.638 35.992 30.224C36.2178 31.0896 36.3683 31.9175 36.5189 32.7078ZM39.906 26.8369C39.1533 27.138 38.3253 27.4014 37.4974 27.6272C36.8952 25.7455 36.1425 23.7509 35.2393 21.7563C36.1425 19.7617 36.9328 17.8047 37.4974 15.923C42.6909 17.4283 45.8145 19.6864 45.8145 21.7939C45.8145 23.5627 43.6317 25.4444 39.906 26.8369Z" fill="#61DAFB"/>
</svg>
