<svg width="58" height="26" viewBox="0 0 58 26" fill="none" xmlns="http://www.w3.org/2000/svg">
<path d="M2.58968 12.4433L14.0769 16.2644V18.9392L0.478302 13.7671V12.1977L2.58968 12.4433ZM14.0769 9.30472L2.60635 13.1802L0.47853 13.3714V11.7883L14.0766 6.62991L14.0769 9.30472ZM55.0849 12.9892L43.2652 9.20912V6.60254L57.4621 11.761V13.3577L55.0849 12.9892ZM43.2652 16.319L55.1182 12.457L57.4621 12.1704V13.7534L43.2652 18.9256V16.319Z" fill="white"/>
<path fill-rule="evenodd" clip-rule="evenodd" d="M37.7232 0.47576C37.669 1.33495 37.2819 2.23215 37.3897 3.06744C38.0658 4.26308 39.5539 4.4537 40.7815 4.53575C41.6321 4.68779 41.6213 4.12459 41.5643 3.49196L41.5747 0.457884C40.2908 0.462588 39.0065 0.445276 37.7232 0.47576ZM27.5994 2.87871C25.5092 3.2336 23.3904 4.23241 21.6515 5.43483C20.2518 6.52415 22.8529 7.57979 23.7966 7.7563C25.6953 7.77944 27.3792 6.49875 28.6264 5.16951C29.0336 4.61064 29.5422 3.75502 29.0306 3.10715C28.64 2.76844 28.0719 2.85048 27.5994 2.87871ZM32.0472 5.9188C30.3286 6.24622 28.6934 6.9545 27.2465 7.9407C26.1858 8.27377 25.3116 9.43836 26.626 10.0219C28.0062 11.1217 29.6058 10.8523 30.8769 10.1098C32.041 9.41785 33.2983 8.56412 33.8369 7.2616C34.3455 5.83469 33.0332 5.78182 32.0472 5.9188ZM36.9225 11.4478C36.6024 12.7846 35.2563 13.3924 34.5401 14.4516C33.9545 15.2243 34.2256 16.1344 34.8923 16.7426C35.2169 17.4157 35.786 17.7919 36.3962 17.2072C37.9678 16.1388 38.4025 14.0576 38.3372 12.2543C38.4533 11.5096 37.5988 12.1828 36.9225 11.4478ZM30.9419 13.9586C28.8549 14.3158 26.7675 15.3326 25.0278 16.5332C23.6773 17.621 26.2208 18.6367 27.1722 18.7978C29.1061 18.8006 30.831 17.5544 32.0538 16.139C32.479 15.5769 32.9944 14.4853 32.1524 14.0384C31.7758 13.8788 31.3387 13.9257 30.9419 13.9586Z" fill="#B956A6"/>
<path fill-rule="evenodd" clip-rule="evenodd" d="M21.6515 5.43474C20.0464 6.07697 18.4981 6.85675 16.969 7.67341C16.6849 8.73 16.9127 10.0384 16.8392 11.1969C16.8335 15.9607 16.8362 20.7246 16.8354 25.4883H20.3768C21.0918 24.8151 21.9875 24.3223 22.7643 23.7109C25.7551 21.5659 28.745 19.4127 31.7318 17.2737C31.9516 17.3725 31.8108 15.9808 31.3287 16.9474C30.1863 18.0225 28.6701 18.9067 27.0652 18.8203C26.1544 18.5207 24.6863 18.0125 24.6771 16.8964C25.3182 16.1417 23.4942 17.2916 22.9952 17.4563C21.3728 18.2353 19.7888 19.1052 18.163 19.8697C18.5536 19.4501 19.2845 19.0589 19.8027 18.6427C23.5046 15.9853 27.2055 13.3176 30.9163 10.6623C31.63 10.1612 32.3195 9.61459 33.0552 9.14623C33.1224 9.40572 33.2485 7.90562 32.7013 8.82916C31.5858 9.93486 30.0812 10.7579 28.4943 10.7692C27.6018 10.4982 25.7009 9.85037 26.1241 8.69801C26.3305 8.29363 24.207 9.56002 25.1452 8.84591C26.1439 8.11618 27.1504 7.39944 28.1567 6.67724C28.665 6.63904 28.5568 4.75111 27.8662 5.96896C26.7061 6.98828 25.1819 7.92086 23.5842 7.69976C22.6866 7.4414 21.6097 6.94105 21.2834 6.00245C21.1754 5.77702 21.8878 5.42571 21.6515 5.43474ZM28.3012 6.60009C28.2122 6.85468 28.4625 6.50713 28.3012 6.60009V6.60009Z" fill="#FCCC44"/>
<path fill-rule="evenodd" clip-rule="evenodd" d="M38.4424 4.17348C37.9413 6.56626 37.3935 9.07063 36.9225 11.4476C38.2758 13.1532 38.407 10.3701 38.6437 9.58321C39.0263 7.93841 39.4794 6.69648 39.5274 4.99353C39.629 4.41227 38.9459 4.06038 38.4424 4.17348ZM39.995 6.04973C39.9526 6.29492 40.0567 6.09583 39.995 6.04973V6.04973ZM38.4162 11.4152C38.4813 11.2749 38.4813 11.5554 38.4162 11.4152V11.4152Z" fill="#62777F"/>
<path fill-rule="evenodd" clip-rule="evenodd" d="M39.33 4.44442C39.7522 6.81575 38.3536 9.69666 37.8961 11.9325C38.9348 11.1682 39.7374 7.70016 39.9425 6.34269C39.9954 6.18745 40.0605 5.7968 40.0746 5.78269C40.1399 5.4532 40.7482 4.8949 40.7815 4.53568C41.1357 4.28579 39.041 4.24571 39.33 4.44442ZM38.4687 11.4152C38.4034 11.2748 38.4034 11.5554 38.4687 11.4152V11.4152Z" fill="#4E5E67"/>
<path fill-rule="evenodd" clip-rule="evenodd" d="M21.6867 5.47434C21.1011 6.06068 21.3209 5.91748 21.7567 5.42993L21.6867 5.47434ZM28.0205 5.76469C27.3422 6.78401 24.8959 7.63643 24.5879 7.70248C26.0594 7.42681 27.431 6.51135 28.3961 5.43915C28.2427 5.50746 28.1517 5.66797 28.0205 5.76469ZM21.2844 6.09568C21.65 6.97482 22.9794 7.5589 23.6254 7.69514C22.7434 7.411 21.7053 6.90708 21.2844 6.09568ZM28.2486 6.60412C28.064 6.82202 27.4065 7.14794 27.0599 7.46783C26.3164 8.01616 25.5474 8.52573 24.8124 9.08779C25.2804 9.06766 26.6518 8.04325 25.9487 9.08271C26.5445 10.1081 27.8416 10.821 29.0242 10.7559C30.586 10.5107 32.0263 9.64723 33.0616 8.44632C31.8048 9.68994 30.1433 10.8604 28.3046 10.6991C27.4148 10.4936 24.9832 9.23758 26.6098 8.35712C27.1833 7.88538 28.1722 7.63831 28.2841 6.80923C28.2606 6.70573 28.4535 6.60468 28.2486 6.60412ZM23.7966 7.75629C24.3884 7.67914 24.3884 7.83363 23.7966 7.75629V7.75629ZM33.0176 9.17228C30.6694 10.8082 28.3553 12.5082 26.0274 14.1735C23.3892 16.0616 20.7624 17.9567 18.125 19.8433C19.1166 19.5089 20.1102 18.856 21.0952 18.4049C22.452 17.6872 23.8824 17.1203 25.1518 16.2485C27.6617 14.7709 30.316 13.3632 32.2465 11.1027C32.6678 10.6086 33.0902 9.81319 33.109 9.27822C33.0483 9.29535 33.0944 9.06427 33.0176 9.17228ZM25.0278 16.533C24.6054 17.0104 24.4338 17.3515 24.8722 16.7445C24.8645 16.8149 25.228 16.3676 25.0278 16.533ZM31.455 16.7614C30.3422 17.9349 28.6962 18.7813 27.1519 18.8383C28.9373 18.8513 30.548 17.7915 31.7576 16.5413C31.6782 16.4453 31.5173 16.7648 31.455 16.7614ZM31.795 17.1302C28.0563 19.8519 24.1884 22.6751 20.437 25.387C21.0279 25.5724 22.3148 25.6593 22.9021 24.9027C24.1515 24.0405 25.5562 23.4065 26.8098 22.5326C28.6251 21.3547 30.5687 20.0672 31.5997 18.0875C31.6488 17.822 32.0137 17.3444 31.795 17.1302ZM24.6797 17.303C24.8532 18.0353 27.0221 18.8759 26.7869 18.715C25.9871 18.4346 25.1938 17.9977 24.6797 17.303Z" fill="#DC9624"/>
</svg>
