<svg width="50" height="29" viewBox="0 0 50 29" fill="none" xmlns="http://www.w3.org/2000/svg">
<path d="M24.99 0.1073C18.5669 0.1073 14.554 3.3175 12.947 9.74054C15.3548 6.52996 18.1657 5.32604 21.3763 6.12878C23.2095 6.58566 24.5195 7.91491 25.9703 9.38791C28.3315 11.7841 31.0645 14.5581 37.0329 14.5581C43.4556 14.5581 47.4689 11.3475 49.0759 4.92298C46.6677 8.13544 43.8572 9.33936 40.6462 8.53662C38.8134 8.07937 37.5049 6.7505 36.0522 5.2775C33.6925 2.88132 30.9603 0.1073 24.99 0.1073ZM12.947 14.5581C6.52434 14.5581 2.51102 17.7687 0.904037 24.1932C3.31188 20.9808 6.12241 19.7769 9.33336 20.5796C11.1665 21.0368 12.4766 22.3657 13.9274 23.8387C16.2886 26.2349 19.0215 29.0089 24.99 29.0089C31.4126 29.0089 35.426 25.7987 37.0329 19.3757C34.6247 22.5863 31.8142 23.7902 28.6032 22.9874C26.7704 22.5306 25.4619 21.2013 24.0092 19.7283C21.6496 17.3321 18.9173 14.5581 12.947 14.5581Z" fill="#38BDF8"/>
</svg>
